# xmcd CD database file
#
# Track frame offsets:
#	150
#	14246
#	27842
#	41394
#	54689
#	66775
#	79306
#	93855
#	107219
#	121234
#	134222
#	148099
#	161188
#	174652
#	187015
#	201146
#	213717
#	227235
#	239336
#	253691
#
# Disc length: 3592 seconds
#
# Revision: 0
# Processed by: cddbd v1.5.2PL0 Copyright (c) Steve Scherf et al.
# Submitted via: CDex 2.14
#
DISCID=350e0614
DTITLE=Dizzy Gillespie - The Essential Recordings [CD1)
DYEAR=2017
DGENRE=Jazz
TTITLE0=A Night In Tunisia
TTITLE1=I Can't Get Started
TTITLE2=Good Bait
TTITLE3=Blue 'n Boogie
TTITLE4=Groovin' High
TTITLE5=Dizzy Atmosphere
TTITLE6=Salt Peanuts
TTITLE7=Shaw 'Nuff
TTITLE8=Hot House
TTITLE9=Round About Midnight
TTITLE10=52nd Street Theme
TTITLE11=One Bass Hit, Pt. 1
TTITLE12=Oop-Bop-Sh'bam
TTITLE13=Things To Come
TTITLE14=Emanon
TTITLE15=Two Bass Hit
TTITLE16=Algo Bueno (Woody 'N' You)
TTITLE17=Cubana Be
TTITLE18=Guarachi Guaro
TTITLE19=Lover, Come Back To Me
EXTD=YEAR: 2017
EXTT0=
EXTT1=
EXTT2=
EXTT3=
EXTT4=
EXTT5=
EXTT6=
EXTT7=
EXTT8=
EXTT9=
EXTT10=
EXTT11=
EXTT12=
EXTT13=
EXTT14=
EXTT15=
EXTT16=
EXTT17=
EXTT18=
EXTT19=
PLAYORDER=
